# xmcd CD database file
#
# Track frame offsets:
#	187
#	27262
#	72237
#	103462
#	122797
#	146787
#	164460
#	193050
#	214100
#	228600
#	250725
#	268762
#	288060
#
# Disc length: 3984 seconds
#
# Revision: 0
# Processed by: cddbd v1.5.2PL0 Copyright (c) Steve Scherf et al.
# Submitted via: CDex 1.70beta2
#
DISCID=cc0f8e0d
DTITLE=STARS JAZZ - ＳＴＡＲＳ　ＪＡＺＺ
DYEAR=1996
DGENRE=Jazz
TTITLE0=マイ・ファニー・ヴァレンタイン／マイルス・デイビス
TTITLE1=モリタート／ソニー・ロリンズ
TTITLE2=ワルツ・フォー・デビィ／ビル・エバンス
TTITLE3=セイ・イット／ジョン・コルトレーン
TTITLE4=ファイヴ・スポット・アフター・ダーク／カーティス・フラー
TTITLE5=マイ・ロマンス／カーメン・マクレエ
TTITLE6=シスター・セイディ／ホレス・シルヴァー
TTITLE7=オー、レイディ、ビー・グッド／カウント・ベイシー
TTITLE8=アイ・リメンバー・クリフォード／アート・ファーマー＆ベニーコルソン
TTITLE9=９：２０　スペシャル／ズート・シムズ
TTITLE10=スターダスト／エラ・フィッツジェラルド
TTITLE11=イン・ア・センチメンタル・ムード／デューク・エリントン＆ジョン・コルトレーン
TTITLE12=ハロー、ドーリー！／ルイ・アームストロング
EXTD=YEAR: 1996
EXTT0=
EXTT1=
EXTT2=
EXTT3=
EXTT4=
EXTT5=
EXTT6=
EXTT7=
EXTT8=
EXTT9=
EXTT10=
EXTT11=
EXTT12=
PLAYORDER=
